<?xml version="1.0" encoding="UTF-8" standalone="no"?>
<!-- Created with Inkscape (http://www.inkscape.org/) -->

<svg
   width="4.4099998in"
   height="3.2in"
   viewBox="0 0 112.01399 81.28001"
   version="1.1"
   id="svg5"
   inkscape:version="1.1.2 (0a00cf5339, 2022-02-04)"
   sodipodi:docname="uncertainty_sampling.svg"
   inkscape:export-filename="/home/alex/Nextcloud/Research/Active control/figs/uncertainty_sampling.png"
   inkscape:export-xdpi="300"
   inkscape:export-ydpi="300"
   xmlns:inkscape="http://www.inkscape.org/namespaces/inkscape"
   xmlns:sodipodi="http://sodipodi.sourceforge.net/DTD/sodipodi-0.dtd"
   xmlns:xlink="http://www.w3.org/1999/xlink"
   xmlns="http://www.w3.org/2000/svg"
   xmlns:svg="http://www.w3.org/2000/svg">
  <sodipodi:namedview
     id="namedview7"
     pagecolor="#ffffff"
     bordercolor="#666666"
     borderopacity="1.0"
     inkscape:pageshadow="2"
     inkscape:pageopacity="0.0"
     inkscape:pagecheckerboard="0"
     inkscape:document-units="mm"
     showgrid="false"
     inkscape:zoom="1.4142136"
     inkscape:cx="189.50462"
     inkscape:cy="114.90485"
     inkscape:window-width="1920"
     inkscape:window-height="1016"
     inkscape:window-x="0"
     inkscape:window-y="27"
     inkscape:window-maximized="1"
     inkscape:current-layer="layer2"
     inkscape:snap-to-guides="false"
     inkscape:snap-grids="false"
     units="in"
     width="4.5in"
     height="3.2in" />
  <defs
     id="defs2">
    <marker
       style="overflow:visible"
       id="marker1355"
       refX="0"
       refY="0"
       orient="auto"
       inkscape:stockid="Arrow1Lend"
       inkscape:isstock="true">
      <path
         transform="matrix(-0.8,0,0,-0.8,-10,0)"
         style="fill:context-stroke;fill-rule:evenodd;stroke:context-stroke;stroke-width:1pt"
         d="M 0,0 5,-5 -12.5,0 5,5 Z"
         id="path1353" />
    </marker>
    <marker
       style="overflow:visible"
       id="marker1345"
       refX="0"
       refY="0"
       orient="auto"
       inkscape:stockid="Arrow1Lstart"
       inkscape:isstock="true">
      <path
         transform="matrix(0.8,0,0,0.8,10,0)"
         style="fill:context-stroke;fill-rule:evenodd;stroke:context-stroke;stroke-width:1pt"
         d="M 0,0 5,-5 -12.5,0 5,5 Z"
         id="path1343" />
    </marker>
    <marker
       style="overflow:visible"
       id="Arrow1Lstart"
       refX="0"
       refY="0"
       orient="auto"
       inkscape:stockid="Arrow1Lstart"
       inkscape:isstock="true">
      <path
         transform="matrix(0.8,0,0,0.8,10,0)"
         style="fill:context-stroke;fill-rule:evenodd;stroke:context-stroke;stroke-width:1pt"
         d="M 0,0 5,-5 -12.5,0 5,5 Z"
         id="path877" />
    </marker>
    <marker
       style="overflow:visible"
       id="Arrow1Lend"
       refX="0"
       refY="0"
       orient="auto"
       inkscape:stockid="Arrow1Lend"
       inkscape:isstock="true">
      <path
         transform="matrix(-0.8,0,0,-0.8,-10,0)"
         style="fill:context-stroke;fill-rule:evenodd;stroke:context-stroke;stroke-width:1pt"
         d="M 0,0 5,-5 -12.5,0 5,5 Z"
         id="path880" />
    </marker>
    <marker
       style="overflow:visible"
       id="marker1345-3"
       refX="0"
       refY="0"
       orient="auto"
       inkscape:stockid="Arrow1Lstart"
       inkscape:isstock="true">
      <path
         transform="matrix(0.8,0,0,0.8,10,0)"
         style="fill:context-stroke;fill-rule:evenodd;stroke:context-stroke;stroke-width:1pt"
         d="M 0,0 5,-5 -12.5,0 5,5 Z"
         id="path1343-6" />
    </marker>
    <g
       id="g3148">
      <symbol
         overflow="visible"
         id="symbol8315">
        <path
           style="stroke:none"
           d=""
           id="path8503" />
      </symbol>
      <symbol
         overflow="visible"
         id="symbol9811">
        <path
           style="stroke:none"
           d="M 3.328125,-3.015625 C 3.390625,-3.265625 3.625,-4.1875 4.3125,-4.1875 c 0.046875,0 0.296875,0 0.5,0.125 C 4.53125,-4 4.34375,-3.765625 4.34375,-3.515625 c 0,0.15625 0.109375,0.34375 0.375,0.34375 0.21875,0 0.53125,-0.171875 0.53125,-0.578125 0,-0.515625 -0.578125,-0.65625 -0.921875,-0.65625 -0.578125,0 -0.921875,0.53125 -1.046875,0.75 -0.25,-0.65625 -0.78125,-0.75 -1.078125,-0.75 -1.03125,0 -1.609375,1.28125 -1.609375,1.53125 0,0.109375 0.109375,0.109375 0.125,0.109375 0.078125,0 0.109375,-0.03125 0.125,-0.109375 0.34375,-1.0625 1,-1.3125 1.34375,-1.3125 0.1875,0 0.53125,0.09375 0.53125,0.671875 0,0.3125 -0.171875,0.96875 -0.53125,2.375 -0.15625,0.609375 -0.515625,1.03125 -0.953125,1.03125 -0.0625,0 -0.28125,0 -0.5,-0.125 0.25,-0.0625 0.46875,-0.265625 0.46875,-0.546875 0,-0.265625 -0.21875,-0.34375 -0.359375,-0.34375 -0.3125,0 -0.546875,0.25 -0.546875,0.578125 0,0.453125 0.484375,0.65625 0.921875,0.65625 0.671875,0 1.03125,-0.703125 1.046875,-0.75 0.125,0.359375 0.484375,0.75 1.078125,0.75 1.03125,0 1.59375,-1.28125 1.59375,-1.53125 0,-0.109375 -0.078125,-0.109375 -0.109375,-0.109375 -0.09375,0 -0.109375,0.046875 -0.140625,0.109375 -0.328125,1.078125 -1,1.3125 -1.3125,1.3125 -0.390625,0 -0.546875,-0.3125 -0.546875,-0.65625 0,-0.21875 0.046875,-0.4375 0.15625,-0.875 z m 0,0"
           id="path6341" />
      </symbol>
    </g>
  </defs>
  <g
     inkscape:groupmode="layer"
     id="layer5"
     inkscape:label="Background">
    <rect
       style="fill:#ffffff;fill-opacity:1;stroke:#000000;stroke-width:0.185116;stroke-miterlimit:4;stroke-dasharray:none;stroke-opacity:0.71434"
       id="rect39436"
       width="39.191872"
       height="18.116354"
       x="5.8389101"
       y="19.654655"
       inkscape:export-filename="/home/alex/uncertainty.png"
       inkscape:export-xdpi="300"
       inkscape:export-ydpi="300" />
    <rect
       style="fill:#ffffff;fill-opacity:1;stroke:#000000;stroke-width:0.185116;stroke-miterlimit:4;stroke-dasharray:none;stroke-opacity:0.71434"
       id="rect39538"
       width="39.191872"
       height="18.116354"
       x="5.8389101"
       y="37.807507"
       inkscape:export-filename="/home/alex/uncertainty.png"
       inkscape:export-xdpi="300"
       inkscape:export-ydpi="300" />
    <rect
       style="fill:#ffffff;fill-opacity:1;stroke:#000000;stroke-width:0.185116;stroke-miterlimit:4;stroke-dasharray:none;stroke-opacity:0.71434"
       id="rect39540"
       width="39.191872"
       height="18.116354"
       x="5.8389101"
       y="55.960129"
       inkscape:export-filename="/home/alex/uncertainty.png"
       inkscape:export-xdpi="300"
       inkscape:export-ydpi="300" />
    <rect
       style="fill:#ffffff;fill-opacity:1;stroke:#000000;stroke-width:0.104098;stroke-miterlimit:4;stroke-dasharray:none;stroke-opacity:0.71434"
       id="rect40667"
       width="23.270067"
       height="9.6478815"
       x="21.747726"
       y="9.993804"
       inkscape:export-filename="/home/alex/uncertainty.png"
       inkscape:export-xdpi="300"
       inkscape:export-ydpi="300" />
    <path
       style="fill:none;fill-rule:evenodd;stroke:#000000;stroke-width:0.264583px;stroke-linecap:butt;stroke-linejoin:miter;stroke-opacity:1;marker-start:url(#marker1345)"
       d="M 103.72331,73.06503 H 56.077365"
       id="path1341"
       inkscape:connector-type="polyline"
       inkscape:connector-curvature="0"
       sodipodi:nodetypes="cc" />
    <path
       style="fill:none;fill-rule:evenodd;stroke:#000000;stroke-width:0.244375px;stroke-linecap:butt;stroke-linejoin:miter;stroke-opacity:1;marker-start:url(#marker1345-3)"
       d="m 56.041885,20.299512 0.03548,52.765518"
       id="path1341-7"
       inkscape:connector-type="polyline"
       inkscape:connector-curvature="0"
       sodipodi:nodetypes="cc" />
  </g>
  <g
     inkscape:label="Layer 1"
     inkscape:groupmode="layer"
     id="layer1">
    <path
       style="fill:#35c3fd;fill-opacity:1;stroke:#000000;stroke-width:0.0557838;stroke-linecap:butt;stroke-linejoin:miter;stroke-miterlimit:4;stroke-dasharray:0, 0.61364;stroke-dashoffset:0;stroke-opacity:1"
       d="m 8.6523617,24.55227 c 0.2854032,0.02129 1.0876978,-4.32765 1.3709683,-4.283845 5.407201,0.83629 11.580019,6.39116 15.380331,7.132879 9.237328,1.802874 18.406235,-3.7817 18.406235,-3.7817 l -1.909493,6.641322"
       id="path2128"
       sodipodi:nodetypes="csscc"
       inkscape:export-filename="/home/alex/uncertainty.png"
       inkscape:export-xdpi="300"
       inkscape:export-ydpi="300" />
    <path
       style="fill:#35c3fd;fill-opacity:1;stroke:#000000;stroke-width:0.0557838;stroke-linecap:butt;stroke-linejoin:miter;stroke-miterlimit:4;stroke-dasharray:0, 0.61364;stroke-dashoffset:0;stroke-opacity:1"
       d="m 8.6611796,24.519566 c 0.2710425,0.07451 -1.2388816,4.301616 -0.9581702,4.354931 5.3582916,1.017681 13.8457596,-2.012491 17.6910376,-1.437539 9.346608,1.397526 14.824091,9.504411 14.824091,9.504411 l 1.682265,-6.680443"
       id="path19503"
       sodipodi:nodetypes="csscc"
       inkscape:export-filename="/home/alex/uncertainty.png"
       inkscape:export-xdpi="300"
       inkscape:export-ydpi="300" />
    <path
       style="fill:#35c3fd;fill-opacity:1;stroke:#000000;stroke-width:0.0557838;stroke-linecap:butt;stroke-linejoin:miter;stroke-miterlimit:4;stroke-dasharray:0, 0.61364;stroke-dashoffset:0;stroke-opacity:1"
       d="m 7.8824707,43.136664 c 0.2842206,0.02962 1.2869034,-4.292586 1.5679623,-4.240452 5.364869,0.995294 11.276817,6.728557 15.040245,7.581909 5.75439,1.304832 10.587219,1.057441 13.78135,2.412311 2.059575,0.873586 2.57202,0.932246 2.57202,0.932246 v 0"
       id="path2128-3"
       sodipodi:nodetypes="cscccc"
       inkscape:export-filename="/home/alex/uncertainty.png"
       inkscape:export-xdpi="300"
       inkscape:export-ydpi="300" />
    <path
       style="fill:#35c3fd;fill-opacity:1;stroke:#000000;stroke-width:0.0557838;stroke-linecap:butt;stroke-linejoin:miter;stroke-miterlimit:4;stroke-dasharray:0, 0.61364;stroke-dashoffset:0;stroke-opacity:1"
       d="m 7.8927905,43.104282 c 0.2674151,0.08243 -1.4367865,4.262101 -1.1587304,4.323654 5.3076159,1.175165 14.1519229,-1.644896 17.9679899,-0.956839 5.208251,0.939035 9.43062,3.451857 13.326437,3.211862 1.93228,-0.119049 2.815561,0.139719 2.815561,0.139719 v 0"
       id="path19503-6"
       sodipodi:nodetypes="cssscc"
       inkscape:export-filename="/home/alex/uncertainty.png"
       inkscape:export-xdpi="300"
       inkscape:export-ydpi="300" />
    <path
       style="fill:none;stroke:#000000;stroke-width:0.203459;stroke-linecap:butt;stroke-linejoin:miter;stroke-miterlimit:4;stroke-dasharray:none;stroke-opacity:1"
       d="M 7.8824707,43.136664 C 20.424203,45.757522 28.658944,47.246441 40.844048,49.822678"
       id="path1021-7"
       sodipodi:nodetypes="cc"
       inkscape:export-filename="/home/alex/uncertainty.png"
       inkscape:export-xdpi="300"
       inkscape:export-ydpi="300" />
    <path
       style="fill:#35c3fd;fill-opacity:1;stroke:#000000;stroke-width:0.0557838;stroke-linecap:butt;stroke-linejoin:miter;stroke-miterlimit:4;stroke-dasharray:0, 0.61364;stroke-dashoffset:0;stroke-opacity:1"
       d="m 9.1555911,60.095692 c 5.0035069,-0.433407 12.4131839,1.891223 15.3953969,3.925586 5.812501,0.772686 10.095345,1.874962 13.368764,3.102943 2.110708,0.79181 2.626139,0.830284 2.626139,0.830284 v 0"
       id="path22357"
       sodipodi:nodetypes="ccccc"
       inkscape:export-filename="/home/alex/uncertainty.png"
       inkscape:export-xdpi="300"
       inkscape:export-ydpi="300" />
    <path
       style="fill:#35c3fd;fill-opacity:1;stroke:#000000;stroke-width:0.0557838;stroke-linecap:butt;stroke-linejoin:miter;stroke-miterlimit:4;stroke-dasharray:0, 0.61364;stroke-dashoffset:0;stroke-opacity:1"
       d="m 9.1555911,60.095692 c 6.0058059,2.529551 9.7123639,3.042238 15.3953969,3.925586 3.512341,1.62458 9.297775,4.296568 13.174186,3.904117 1.922675,-0.194715 2.820717,0.02927 2.820717,0.02927 v 0"
       id="path22359"
       sodipodi:nodetypes="ccscc"
       inkscape:export-filename="/home/alex/uncertainty.png"
       inkscape:export-xdpi="300"
       inkscape:export-ydpi="300" />
    <path
       style="fill:none;stroke:#000000;stroke-width:0.203459;stroke-linecap:butt;stroke-linejoin:miter;stroke-miterlimit:4;stroke-dasharray:none;stroke-opacity:1"
       d="m 9.1555911,60.095692 c 5.6410119,0.945269 11.1188619,2.634893 15.3420859,3.909277 5.275442,1.591982 9.201108,2.785794 16.048214,3.949536"
       id="path22361"
       sodipodi:nodetypes="csc"
       inkscape:export-filename="/home/alex/uncertainty.png"
       inkscape:export-xdpi="300"
       inkscape:export-ydpi="300" />
    <rect
       style="fill:#35c3fd;fill-opacity:1;stroke:#000000;stroke-width:0.146221;stroke-miterlimit:4;stroke-dasharray:none;stroke-opacity:0.71434"
       id="rect26780"
       width="1.4812531"
       height="1.1835382"
       x="23.871111"
       y="11.168923"
       inkscape:export-filename="/home/alex/uncertainty.png"
       inkscape:export-xdpi="300"
       inkscape:export-ydpi="300" />
    <path
       style="fill:none;stroke:#000000;stroke-width:0.146221;stroke-linecap:butt;stroke-linejoin:miter;stroke-miterlimit:4;stroke-dasharray:none;stroke-opacity:1"
       d="m 24.016861,14.660411 c 1.121901,0 1.178056,-0.0091 1.178056,-0.0091"
       id="path26848"
       sodipodi:nodetypes="cc"
       inkscape:export-filename="/home/alex/uncertainty.png"
       inkscape:export-xdpi="300"
       inkscape:export-ydpi="300" />
    <path
       style="display:inline;fill:#909090;fill-opacity:1;fill-rule:evenodd;stroke:#777676;stroke-width:0.264583;stroke-linecap:butt;stroke-linejoin:miter;stroke-miterlimit:4;stroke-dasharray:none;stroke-dashoffset:0;stroke-opacity:1"
       d="M 78.457024,68.714704 98.275027,56.001446"
       id="path1051"
       inkscape:connector-type="polyline"
       inkscape:connector-curvature="0"
       sodipodi:nodetypes="cc" />
    <path
       style="display:inline;fill:#909090;fill-opacity:1;fill-rule:evenodd;stroke:#777676;stroke-width:0.264583px;stroke-linecap:butt;stroke-linejoin:miter;stroke-opacity:1"
       d="M 98.275027,56.001436 64.504885,43.22446"
       id="path1155"
       inkscape:connector-type="polyline"
       inkscape:connector-curvature="0"
       sodipodi:nodetypes="cc"
       inkscape:connection-start="#use17366-93"
       inkscape:connection-end="#use17366-60" />
    <path
       style="display:inline;fill:#909090;fill-opacity:1;fill-rule:evenodd;stroke:#777676;stroke-width:0.264583;stroke-linecap:butt;stroke-linejoin:miter;stroke-miterlimit:4;stroke-dasharray:0.793749, 0.264583;stroke-dashoffset:0;stroke-opacity:1"
       d="M 90.737594,30.447484 64.504885,43.224471"
       id="path1155-2"
       inkscape:connector-type="polyline"
       inkscape:connector-curvature="0"
       sodipodi:nodetypes="cc"
       inkscape:connection-start="#use17366-60-6" />
    <text
       xml:space="preserve"
       style="font-size:4.23333px;line-height:1.25;font-family:sans-serif;stroke-width:0.264583"
       x="-59.15765"
       y="54.326134"
       id="text14713"
       transform="rotate(-89.452446)"><tspan
         sodipodi:role="line"
         id="tspan14711"
         style="stroke-width:0.264583"
         x="-59.15765"
         y="54.326134">Samples</tspan></text>
    <g
       inkscape:label=""
       transform="matrix(0.67909148,0,0,0.66852098,14.647402,22.205465)"
       id="g16351">
      <g
         id="g7075">
        <g
           style="fill:#000000;fill-opacity:1"
           id="g2753">
          <use
             xlink:href="#symbol9811"
             x="91.925003"
             y="81.962997"
             id="use1351"
             width="100%"
             height="100%" />
        </g>
      </g>
    </g>
    <use
       x="0"
       y="0"
       xlink:href="#path1045-6"
       id="use17366-6"
       transform="translate(16.050015,32.267562)"
       width="100%"
       height="100%" />
    <use
       x="0"
       y="0"
       xlink:href="#path1045-6"
       id="use17366-2"
       transform="translate(16.050015,50.461868)"
       width="100%"
       height="100%" />
    <use
       x="0"
       y="0"
       xlink:href="#path1045-6"
       id="use17366-9"
       transform="translate(0.40633092,46.642582)"
       width="100%"
       height="100%" />
    <use
       x="0"
       y="0"
       xlink:href="#path1045-6"
       id="use17366-27"
       transform="translate(-15.2976,42.675808)"
       width="100%"
       height="100%" />
    <use
       x="0"
       y="0"
       xlink:href="#path1045-6"
       id="use17366-0"
       transform="translate(53.713966,51.272887)"
       width="100%"
       height="100%" />
    <use
       x="0"
       y="0"
       xlink:href="#path1045-6"
       id="use17366-93"
       transform="translate(73.663289,38.495907)"
       width="100%"
       height="100%" />
    <use
       x="0"
       y="0"
       xlink:href="#path1045-6"
       id="use17366-60"
       transform="translate(39.893147,25.718931)"
       width="100%"
       height="100%" />
    <use
       x="0"
       y="0"
       xlink:href="#path1045-6"
       id="use17366-60-6"
       transform="translate(66.125856,12.941955)"
       width="100%"
       height="100%" />
    <text
       xml:space="preserve"
       style="font-size:4.23333px;line-height:1.25;font-family:sans-serif;stroke-width:0.264583"
       x="28.699715"
       y="6.2127347"
       id="text24412"><tspan
         sodipodi:role="line"
         id="tspan24410"
         style="stroke-width:0.264583"
         x="28.699715"
         y="6.2127347">Uncertainty sampling</tspan></text>
  </g>
  <g
     inkscape:groupmode="layer"
     id="layer3"
     inkscape:label="Dots" />
  <g
     inkscape:groupmode="layer"
     id="layer4"
     inkscape:label="Main lines">
    <path
       style="fill:none;stroke:#000000;stroke-width:0.203459;stroke-linecap:butt;stroke-linejoin:miter;stroke-miterlimit:4;stroke-dasharray:none;stroke-opacity:1"
       d="M 8.6523617,24.55227 C 21.306637,26.801213 29.604603,28.04611 41.900403,30.260926"
       id="path1021"
       sodipodi:nodetypes="cc"
       inkscape:export-filename="/home/alex/uncertainty.png"
       inkscape:export-xdpi="300"
       inkscape:export-ydpi="300" />
  </g>
  <g
     inkscape:groupmode="layer"
     id="layer2"
     inkscape:label="Data points">
    <ellipse
       style="fill:#fd5835;fill-opacity:1;stroke:#000000;stroke-width:0.0492078;stroke-opacity:0.71434"
       id="path1045-6"
       cx="24.611738"
       cy="17.505529"
       rx="0.51839608"
       ry="0.49398819"
       inkscape:export-filename="/home/alex/uncertainty.png"
       inkscape:export-xdpi="300"
       inkscape:export-ydpi="300" />
    <text
       xml:space="preserve"
       style="font-style:normal;font-weight:normal;font-size:2.13654px;line-height:1.25;font-family:sans-serif;fill:#000000;fill-opacity:1;stroke:none;stroke-width:0.0534142"
       x="27.623661"
       y="12.254596"
       id="text30306"
       inkscape:export-filename="/home/alex/uncertainty.png"
       inkscape:export-xdpi="300"
       inkscape:export-ydpi="300"
       transform="scale(0.9918779,1.0081886)"><tspan
         sodipodi:role="line"
         id="tspan30304"
         style="stroke-width:0.0534142"
         x="27.623661"
         y="12.254596">Uncertainty</tspan></text>
    <text
       xml:space="preserve"
       style="font-style:normal;font-weight:normal;font-size:2.13654px;line-height:1.25;font-family:sans-serif;fill:#000000;fill-opacity:1;stroke:none;stroke-width:0.0534142"
       x="27.599678"
       y="15.126696"
       id="text32356"
       inkscape:export-filename="/home/alex/uncertainty.png"
       inkscape:export-xdpi="300"
       inkscape:export-ydpi="300"
       transform="scale(0.9918779,1.0081886)"><tspan
         sodipodi:role="line"
         id="tspan32354"
         style="stroke-width:0.0534142"
         x="27.599678"
         y="15.126696">Mean prediction</tspan></text>
    <text
       xml:space="preserve"
       style="font-style:normal;font-weight:normal;font-size:2.13654px;line-height:1.25;font-family:sans-serif;fill:#000000;fill-opacity:1;stroke:none;stroke-width:0.0534142"
       x="27.599678"
       y="17.952774"
       id="text37478"
       inkscape:export-filename="/home/alex/uncertainty.png"
       inkscape:export-xdpi="300"
       inkscape:export-ydpi="300"
       transform="scale(0.9918779,1.0081886)"><tspan
         sodipodi:role="line"
         id="tspan37476"
         style="stroke-width:0.0534142"
         x="27.599678"
         y="17.952774">Data sample</tspan></text>
    <use
       x="0"
       y="0"
       xlink:href="#path1045-6"
       id="use17366"
       transform="translate(0.40633082,29.247309)"
       width="100%"
       height="100%" />
    <use
       x="0"
       y="0"
       xlink:href="#path1045-6"
       id="use17366-5"
       transform="translate(0.40633082,9.8794916)"
       width="100%"
       height="100%" />
  </g>
</svg>
