<?xml version="1.0" encoding="UTF-8" standalone="no"?>
<!-- Created with Inkscape (http://www.inkscape.org/) -->

<svg
   width="4.4099998in"
   height="3.2in"
   viewBox="0 0 112.01399 81.28001"
   version="1.1"
   id="svg5"
   inkscape:version="1.1.2 (0a00cf5339, 2022-02-04)"
   sodipodi:docname="uncertainty_sampling.svg"
   inkscape:export-filename="/home/alex/Nextcloud/Research/Active control/figs/uncertainty_sampling.png"
   inkscape:export-xdpi="300"
   inkscape:export-ydpi="300"
   xmlns:inkscape="http://www.inkscape.org/namespaces/inkscape"
   xmlns:sodipodi="http://sodipodi.sourceforge.net/DTD/sodipodi-0.dtd"
   xmlns:xlink="http://www.w3.org/1999/xlink"
   xmlns="http://www.w3.org/2000/svg"
   xmlns:svg="http://www.w3.org/2000/svg">
  <sodipodi:namedview
     id="namedview7"
     pagecolor="#ffffff"
     bordercolor="#666666"
     borderopacity="1.0"
     inkscape:pageshadow="2"
     inkscape:pageopacity="0.0"
     inkscape:pagecheckerboard="0"
     inkscape:document-units="mm"
     showgrid="false"
     inkscape:zoom="1.4142136"
     inkscape:cx="110.30865"
     inkscape:cy="69.650016"
     inkscape:window-width="1920"
     inkscape:window-height="1016"
     inkscape:window-x="1080"
     inkscape:window-y="27"
     inkscape:window-maximized="1"
     inkscape:current-layer="layer5"
     inkscape:snap-to-guides="false"
     inkscape:snap-grids="false"
     units="in"
     width="4.5in"
     height="3.2in" />
  <defs
     id="defs2">
    <marker
       style="overflow:visible"
       id="marker1355"
       refX="0"
       refY="0"
       orient="auto"
       inkscape:stockid="Arrow1Lend"
       inkscape:isstock="true">
      <path
         transform="matrix(-0.8,0,0,-0.8,-10,0)"
         style="fill:context-stroke;fill-rule:evenodd;stroke:context-stroke;stroke-width:1pt"
         d="M 0,0 5,-5 -12.5,0 5,5 Z"
         id="path1353" />
    </marker>
    <marker
       style="overflow:visible"
       id="marker1345"
       refX="0"
       refY="0"
       orient="auto"
       inkscape:stockid="Arrow1Lstart"
       inkscape:isstock="true">
      <path
         transform="matrix(0.8,0,0,0.8,10,0)"
         style="fill:context-stroke;fill-rule:evenodd;stroke:context-stroke;stroke-width:1pt"
         d="M 0,0 5,-5 -12.5,0 5,5 Z"
         id="path1343" />
    </marker>
    <marker
       style="overflow:visible"
       id="Arrow1Lstart"
       refX="0"
       refY="0"
       orient="auto"
       inkscape:stockid="Arrow1Lstart"
       inkscape:isstock="true">
      <path
         transform="matrix(0.8,0,0,0.8,10,0)"
         style="fill:context-stroke;fill-rule:evenodd;stroke:context-stroke;stroke-width:1pt"
         d="M 0,0 5,-5 -12.5,0 5,5 Z"
         id="path877" />
    </marker>
    <marker
       style="overflow:visible"
       id="Arrow1Lend"
       refX="0"
       refY="0"
       orient="auto"
       inkscape:stockid="Arrow1Lend"
       inkscape:isstock="true">
      <path
         transform="matrix(-0.8,0,0,-0.8,-10,0)"
         style="fill:context-stroke;fill-rule:evenodd;stroke:context-stroke;stroke-width:1pt"
         d="M 0,0 5,-5 -12.5,0 5,5 Z"
         id="path880" />
    </marker>
    <marker
       style="overflow:visible"
       id="marker1345-3"
       refX="0"
       refY="0"
       orient="auto"
       inkscape:stockid="Arrow1Lstart"
       inkscape:isstock="true">
      <path
         transform="matrix(0.8,0,0,0.8,10,0)"
         style="fill:context-stroke;fill-rule:evenodd;stroke:context-stroke;stroke-width:1pt"
         d="M 0,0 5,-5 -12.5,0 5,5 Z"
         id="path1343-6" />
    </marker>
    <g
       id="g3148">
      <symbol
         overflow="visible"
         id="symbol8315">
        <path
           style="stroke:none"
           d=""
           id="path8503" />
      </symbol>
      <symbol
         overflow="visible"
         id="symbol9811">
        <path
           style="stroke:none"
           d="M 3.328125,-3.015625 C 3.390625,-3.265625 3.625,-4.1875 4.3125,-4.1875 c 0.046875,0 0.296875,0 0.5,0.125 C 4.53125,-4 4.34375,-3.765625 4.34375,-3.515625 c 0,0.15625 0.109375,0.34375 0.375,0.34375 0.21875,0 0.53125,-0.171875 0.53125,-0.578125 0,-0.515625 -0.578125,-0.65625 -0.921875,-0.65625 -0.578125,0 -0.921875,0.53125 -1.046875,0.75 -0.25,-0.65625 -0.78125,-0.75 -1.078125,-0.75 -1.03125,0 -1.609375,1.28125 -1.609375,1.53125 0,0.109375 0.109375,0.109375 0.125,0.109375 0.078125,0 0.109375,-0.03125 0.125,-0.109375 0.34375,-1.0625 1,-1.3125 1.34375,-1.3125 0.1875,0 0.53125,0.09375 0.53125,0.671875 0,0.3125 -0.171875,0.96875 -0.53125,2.375 -0.15625,0.609375 -0.515625,1.03125 -0.953125,1.03125 -0.0625,0 -0.28125,0 -0.5,-0.125 0.25,-0.0625 0.46875,-0.265625 0.46875,-0.546875 0,-0.265625 -0.21875,-0.34375 -0.359375,-0.34375 -0.3125,0 -0.546875,0.25 -0.546875,0.578125 0,0.453125 0.484375,0.65625 0.921875,0.65625 0.671875,0 1.03125,-0.703125 1.046875,-0.75 0.125,0.359375 0.484375,0.75 1.078125,0.75 1.03125,0 1.59375,-1.28125 1.59375,-1.53125 0,-0.109375 -0.078125,-0.109375 -0.109375,-0.109375 -0.09375,0 -0.109375,0.046875 -0.140625,0.109375 -0.328125,1.078125 -1,1.3125 -1.3125,1.3125 -0.390625,0 -0.546875,-0.3125 -0.546875,-0.65625 0,-0.21875 0.046875,-0.4375 0.15625,-0.875 z m 0,0"
           id="path6341" />
      </symbol>
    </g>
  </defs>
  <g
     inkscape:groupmode="layer"
     id="layer5"
     inkscape:label="Background">
    <rect
       style="fill:#ffffff;fill-opacity:1;stroke:#000000;stroke-width:0.185116;stroke-miterlimit:4;stroke-dasharray:none;stroke-opacity:0.71434"
       id="rect39436"
       width="39.191872"
       height="18.116354"
       x="5.8389101"
       y="55.638023"
       inkscape:export-filename="/home/alex/Nextcloud/Research/Active control/figs/Bayesian_optimization.png"
       inkscape:export-xdpi="300"
       inkscape:export-ydpi="300" />
    <rect
       style="fill:#ffffff;fill-opacity:1;stroke:#000000;stroke-width:0.185116;stroke-miterlimit:4;stroke-dasharray:none;stroke-opacity:0.71434"
       id="rect39538"
       width="39.191872"
       height="18.116354"
       x="5.8389101"
       y="37.807507"
       inkscape:export-filename="/home/alex/Nextcloud/Research/Active control/figs/Bayesian_optimization.png"
       inkscape:export-xdpi="300"
       inkscape:export-ydpi="300" />
    <rect
       style="fill:#ffffff;fill-opacity:1;stroke:#000000;stroke-width:0.185116;stroke-miterlimit:4;stroke-dasharray:none;stroke-opacity:0.71434"
       id="rect39540"
       width="39.191872"
       height="18.116354"
       x="5.838913"
       y="19.976761"
       inkscape:export-filename="/home/alex/Nextcloud/Research/Active control/figs/Bayesian_optimization.png"
       inkscape:export-xdpi="300"
       inkscape:export-ydpi="300" />
    <rect
       style="fill:#ffffff;fill-opacity:1;stroke:#000000;stroke-width:0.104098;stroke-miterlimit:4;stroke-dasharray:none;stroke-opacity:0.71434"
       id="rect40667"
       width="23.270067"
       height="9.6478815"
       x="21.747726"
       y="9.993804"
       inkscape:export-filename="/home/alex/Nextcloud/Research/Active control/figs/Bayesian_optimization.png"
       inkscape:export-xdpi="300"
       inkscape:export-ydpi="300" />
    <path
       style="fill:none;fill-rule:evenodd;stroke:#000000;stroke-width:0.264583px;stroke-linecap:butt;stroke-linejoin:miter;stroke-opacity:1;marker-start:url(#marker1345)"
       d="M 103.72331,73.06503 H 56.077365"
       id="path1341"
       inkscape:connector-type="polyline"
       inkscape:connector-curvature="0"
       sodipodi:nodetypes="cc" />
    <path
       style="fill:none;fill-rule:evenodd;stroke:#000000;stroke-width:0.244375px;stroke-linecap:butt;stroke-linejoin:miter;stroke-opacity:1;marker-start:url(#marker1345-3)"
       d="m 56.041885,20.299512 0.03548,52.765518"
       id="path1341-7"
       inkscape:connector-type="polyline"
       inkscape:connector-curvature="0"
       sodipodi:nodetypes="cc" />
  </g>
  <g
     inkscape:label="Layer 1"
     inkscape:groupmode="layer"
     id="layer1">
    <path
       style="fill:#35c3fd;fill-opacity:1;stroke:#000000;stroke-width:0.0557838;stroke-linecap:butt;stroke-linejoin:miter;stroke-miterlimit:4;stroke-dasharray:0, 0.61364;stroke-dashoffset:0;stroke-opacity:1"
       d="m 8.1996661,63.476452 c 0.2849112,-0.02709 0.3432017,-4.449029 0.6298027,-4.453564 5.4708062,-0.08646 12.4910952,4.349288 16.3620432,4.44028 9.409021,0.221166 17.506247,-6.828037 17.506247,-6.828037 l -0.763537,6.868067"
       id="path2128"
       sodipodi:nodetypes="csscc"
       inkscape:export-filename="/home/alex/Nextcloud/Research/Active control/figs/Bayesian_optimization.png"
       inkscape:export-xdpi="300"
       inkscape:export-ydpi="300" />
    <path
       style="fill:#35c3fd;fill-opacity:1;stroke:#000000;stroke-width:0.0557838;stroke-linecap:butt;stroke-linejoin:miter;stroke-miterlimit:4;stroke-dasharray:0, 0.61364;stroke-dashoffset:0;stroke-opacity:1"
       d="m 8.2028483,63.44273 c 0.2797209,0.02779 -0.4966097,4.448832 -0.2109292,4.454102 5.4531499,0.100583 13.3089409,-4.315934 17.1961219,-4.396901 9.448462,-0.196797 16.213215,6.87162 16.213215,6.87162 l 0.532966,-6.868353"
       id="path19503"
       sodipodi:nodetypes="csscc"
       inkscape:export-filename="/home/alex/Nextcloud/Research/Active control/figs/Bayesian_optimization.png"
       inkscape:export-xdpi="300"
       inkscape:export-ydpi="300" />
    <path
       style="fill:#35c3fd;fill-opacity:1;stroke:#000000;stroke-width:0.0557838;stroke-linecap:butt;stroke-linejoin:miter;stroke-miterlimit:4;stroke-dasharray:0, 0.61364;stroke-dashoffset:0;stroke-opacity:1"
       d="m 7.9133217,46.358278 c 0.2844403,-0.02743 0.4085439,-4.462679 0.6943578,-4.467416 5.4556655,-0.09026 12.3886935,4.354349 16.2466365,4.443098 5.898913,0.135731 10.586284,-1.066761 13.985901,-0.373399 2.192066,0.447046 2.705951,0.402741 2.705951,0.402741 v 0"
       id="path2128-3"
       sodipodi:nodetypes="cscccc"
       inkscape:export-filename="/home/alex/Nextcloud/Research/Active control/figs/Bayesian_optimization.png"
       inkscape:export-xdpi="300"
       inkscape:export-ydpi="300" />
    <path
       style="fill:#35c3fd;fill-opacity:1;stroke:#000000;stroke-width:0.0557838;stroke-linecap:butt;stroke-linejoin:miter;stroke-miterlimit:4;stroke-dasharray:0, 0.61364;stroke-dashoffset:0;stroke-opacity:1"
       d="m 7.9170032,46.324492 c 0.2784603,0.02767 -0.5614958,4.462575 -0.2767537,4.467667 5.4352845,0.0974 13.5431335,-4.423363 17.4198305,-4.507072 5.290993,-0.114287 9.928381,1.509693 13.698883,0.500585 1.870123,-0.500519 2.787205,-0.42237 2.787205,-0.42237 v 0"
       id="path19503-6"
       sodipodi:nodetypes="cssscc"
       inkscape:export-filename="/home/alex/Nextcloud/Research/Active control/figs/Bayesian_optimization.png"
       inkscape:export-xdpi="300"
       inkscape:export-ydpi="300" />
    <path
       style="fill:none;stroke:#000000;stroke-width:0.203459;stroke-linecap:butt;stroke-linejoin:miter;stroke-miterlimit:4;stroke-dasharray:none;stroke-opacity:1"
       d="m 7.9133217,46.358278 c 12.8124153,0.07724 21.1788163,-0.09933 33.6328463,0.005"
       id="path1021-7"
       sodipodi:nodetypes="cc"
       inkscape:export-filename="/home/alex/Nextcloud/Research/Active control/figs/Bayesian_optimization.png"
       inkscape:export-xdpi="300"
       inkscape:export-ydpi="300" />
    <path
       style="fill:#35c3fd;fill-opacity:1;stroke:#000000;stroke-width:0.0557838;stroke-linecap:butt;stroke-linejoin:miter;stroke-miterlimit:4;stroke-dasharray:0, 0.61364;stroke-dashoffset:0;stroke-opacity:1"
       d="m 25.067561,28.155624 c 0.279749,-0.104088 -1.854769,-0.0891 -3.90631,-0.602979 -4.78765,-1.19923 -12.9316007,-3.062991 -12.281863,-3.299542 1.154664,-0.420381 3.014585,-0.262016 5.586253,0.311382 4.229392,0.943015 8.651344,2.925514 10.60192,3.591139 5.808179,-0.804532 9.71497,-0.882998 13.197276,-0.571938 2.2454,0.200576 2.752439,0.100275 2.752439,0.100275 v 0"
       id="path22357"
       sodipodi:nodetypes="cssscccc"
       inkscape:export-filename="/home/alex/Nextcloud/Research/Active control/figs/Bayesian_optimization.png"
       inkscape:export-xdpi="300"
       inkscape:export-ydpi="300" />
    <path
       style="fill:#35c3fd;fill-opacity:1;stroke:#000000;stroke-width:0.0557838;stroke-linecap:butt;stroke-linejoin:miter;stroke-miterlimit:4;stroke-dasharray:0, 0.61364;stroke-dashoffset:0;stroke-opacity:1"
       d="m 25.067561,28.155624 c 1.051021,0.13616 -17.0227067,-4.258097 -16.206575,-3.815272 1.299786,0.705252 1.862419,1.532951 3.975941,2.306157 2.113523,0.773206 9.560364,2.026009 12.230634,1.509115 3.794742,0.734796 9.591709,1.663588 13.223282,0.252115 1.801221,-0.700141 2.726476,-0.723623 2.726476,-0.723623 v 0"
       id="path22359"
       sodipodi:nodetypes="cszcscc"
       inkscape:export-filename="/home/alex/Nextcloud/Research/Active control/figs/Bayesian_optimization.png"
       inkscape:export-xdpi="300"
       inkscape:export-ydpi="300" />
    <path
       style="fill:none;stroke:#000000;stroke-width:0.203459;stroke-linecap:butt;stroke-linejoin:miter;stroke-miterlimit:4;stroke-dasharray:none;stroke-opacity:1"
       d="m 8.809179,24.313387 c 5.187413,1.210104 11.277618,3.738791 15.687737,3.841413 5.508923,0.128272 9.610773,0.232549 16.52036,-0.470839"
       id="path22361"
       sodipodi:nodetypes="csc"
       inkscape:export-filename="/home/alex/Nextcloud/Research/Active control/figs/Bayesian_optimization.png"
       inkscape:export-xdpi="300"
       inkscape:export-ydpi="300" />
    <rect
       style="fill:#35c3fd;fill-opacity:1;stroke:#000000;stroke-width:0.146221;stroke-miterlimit:4;stroke-dasharray:none;stroke-opacity:0.71434"
       id="rect26780"
       width="1.4812531"
       height="1.1835382"
       x="23.871111"
       y="11.168923"
       inkscape:export-filename="/home/alex/Nextcloud/Research/Active control/figs/Bayesian_optimization.png"
       inkscape:export-xdpi="300"
       inkscape:export-ydpi="300" />
    <path
       style="fill:none;stroke:#000000;stroke-width:0.146221;stroke-linecap:butt;stroke-linejoin:miter;stroke-miterlimit:4;stroke-dasharray:none;stroke-opacity:1"
       d="m 24.016861,14.660411 c 1.121901,0 1.178056,-0.0091 1.178056,-0.0091"
       id="path26848"
       sodipodi:nodetypes="cc"
       inkscape:export-filename="/home/alex/Nextcloud/Research/Active control/figs/Bayesian_optimization.png"
       inkscape:export-xdpi="300"
       inkscape:export-ydpi="300" />
    <path
       style="display:inline;fill:#909090;fill-opacity:1;fill-rule:evenodd;stroke:#777676;stroke-width:0.264583;stroke-linecap:butt;stroke-linejoin:miter;stroke-miterlimit:4;stroke-dasharray:none;stroke-dashoffset:0;stroke-opacity:1"
       d="M 78.457024,68.714704 98.275027,56.001446"
       id="path1051"
       inkscape:connector-type="polyline"
       inkscape:connector-curvature="0"
       sodipodi:nodetypes="cc" />
    <path
       style="display:inline;fill:#909090;fill-opacity:1;fill-rule:evenodd;stroke:#777676;stroke-width:0.264583px;stroke-linecap:butt;stroke-linejoin:miter;stroke-opacity:1"
       d="M 98.275027,56.001436 64.504885,43.22446"
       id="path1155"
       inkscape:connector-type="polyline"
       inkscape:connector-curvature="0"
       sodipodi:nodetypes="cc"
       inkscape:connection-start="#use17366-93"
       inkscape:connection-end="#use17366-60" />
    <path
       style="display:inline;fill:#909090;fill-opacity:1;fill-rule:evenodd;stroke:#777676;stroke-width:0.264583;stroke-linecap:butt;stroke-linejoin:miter;stroke-miterlimit:4;stroke-dasharray:0.793749, 0.264583;stroke-dashoffset:0;stroke-opacity:1"
       d="M 90.737594,30.447484 64.504885,43.224471"
       id="path1155-2"
       inkscape:connector-type="polyline"
       inkscape:connector-curvature="0"
       sodipodi:nodetypes="cc"
       inkscape:connection-start="#use17366-60-6" />
    <text
       xml:space="preserve"
       style="font-size:4.23333px;line-height:1.25;font-family:sans-serif;stroke-width:0.264583"
       x="-59.15765"
       y="54.326134"
       id="text14713"
       transform="rotate(-89.452446)"><tspan
         sodipodi:role="line"
         id="tspan14711"
         style="stroke-width:0.264583"
         x="-59.15765"
         y="54.326134">Samples</tspan></text>
    <g
       inkscape:label=""
       transform="matrix(0.67909148,0,0,0.66852098,14.647402,22.205465)"
       id="g16351">
      <g
         id="g7075">
        <g
           style="fill:#000000;fill-opacity:1"
           id="g2753">
          <use
             xlink:href="#symbol9811"
             x="91.925003"
             y="81.962997"
             id="use1351"
             width="100%"
             height="100%" />
        </g>
      </g>
    </g>
    <use
       x="0"
       y="0"
       xlink:href="#path1045-6"
       id="use17366-6"
       transform="rotate(-11.457897,176.74646,-51.531312)"
       width="100%"
       height="100%"
       inkscape:export-filename="/home/alex/Nextcloud/Research/Active control/figs/Bayesian_optimization.png"
       inkscape:export-xdpi="300"
       inkscape:export-ydpi="300" />
    <use
       x="0"
       y="0"
       xlink:href="#path1045-6"
       id="use17366-2"
       transform="rotate(-15.458496,70.300412,-38.275108)"
       width="100%"
       height="100%"
       inkscape:export-filename="/home/alex/Nextcloud/Research/Active control/figs/Bayesian_optimization.png"
       inkscape:export-xdpi="300"
       inkscape:export-ydpi="300" />
    <use
       x="0"
       y="0"
       xlink:href="#path1045-6"
       id="use17366-9"
       transform="rotate(-15.458496,64.052347,21.264546)"
       width="100%"
       height="100%"
       inkscape:export-filename="/home/alex/Nextcloud/Research/Active control/figs/Bayesian_optimization.png"
       inkscape:export-xdpi="300"
       inkscape:export-ydpi="300" />
    <use
       x="0"
       y="0"
       xlink:href="#path1045-6"
       id="use17366-27"
       transform="rotate(-15.458496,41.695827,78.98329)"
       width="100%"
       height="100%"
       inkscape:export-filename="/home/alex/Nextcloud/Research/Active control/figs/Bayesian_optimization.png"
       inkscape:export-xdpi="300"
       inkscape:export-ydpi="300" />
    <use
       x="0"
       y="0"
       xlink:href="#path1045-6"
       id="use17366-0"
       transform="translate(53.713966,51.272887)"
       width="100%"
       height="100%" />
    <use
       x="0"
       y="0"
       xlink:href="#path1045-6"
       id="use17366-93"
       transform="translate(73.663289,38.495907)"
       width="100%"
       height="100%" />
    <use
       x="0"
       y="0"
       xlink:href="#path1045-6"
       id="use17366-60"
       transform="translate(39.893147,25.718931)"
       width="100%"
       height="100%" />
    <use
       x="0"
       y="0"
       xlink:href="#path1045-6"
       id="use17366-60-6"
       transform="translate(66.125856,12.941955)"
       width="100%"
       height="100%" />
    <text
       xml:space="preserve"
       style="font-size:4.23333px;line-height:1.25;font-family:sans-serif;stroke-width:0.264583"
       x="28.699715"
       y="6.2127347"
       id="text24412"><tspan
         sodipodi:role="line"
         id="tspan24410"
         style="stroke-width:0.264583"
         x="28.699715"
         y="6.2127347">Uncertainty sampling</tspan></text>
  </g>
  <g
     inkscape:groupmode="layer"
     id="layer3"
     inkscape:label="Dots" />
  <g
     inkscape:groupmode="layer"
     id="layer4"
     inkscape:label="Main lines">
    <path
       style="fill:none;stroke:#000000;stroke-width:0.203459;stroke-linecap:butt;stroke-linejoin:miter;stroke-miterlimit:4;stroke-dasharray:none;stroke-opacity:1"
       d="m 8.199665,63.476452 c 12.852283,0.0853 21.241377,-0.0853 33.734557,0.02675"
       id="path1021"
       sodipodi:nodetypes="cc"
       inkscape:export-filename="/home/alex/Nextcloud/Research/Active control/figs/Bayesian_optimization.png"
       inkscape:export-xdpi="300"
       inkscape:export-ydpi="300" />
  </g>
  <g
     inkscape:groupmode="layer"
     id="layer2"
     inkscape:label="Data points">
    <ellipse
       style="fill:#fd5835;fill-opacity:1;stroke:#000000;stroke-width:0.0492078;stroke-opacity:0.71434"
       id="path1045-6"
       cx="24.611738"
       cy="17.505529"
       rx="0.51839608"
       ry="0.49398819"
       inkscape:export-filename="/home/alex/Nextcloud/Research/Active control/figs/Bayesian_optimization.png"
       inkscape:export-xdpi="300"
       inkscape:export-ydpi="300" />
    <text
       xml:space="preserve"
       style="font-style:normal;font-weight:normal;font-size:2.13654px;line-height:1.25;font-family:sans-serif;fill:#000000;fill-opacity:1;stroke:none;stroke-width:0.0534142"
       x="27.623661"
       y="12.254596"
       id="text30306"
       inkscape:export-filename="/home/alex/Nextcloud/Research/Active control/figs/Bayesian_optimization.png"
       inkscape:export-xdpi="300"
       inkscape:export-ydpi="300"
       transform="scale(0.9918779,1.0081886)"><tspan
         sodipodi:role="line"
         id="tspan30304"
         style="stroke-width:0.0534142"
         x="27.623661"
         y="12.254596">Uncertainty</tspan></text>
    <text
       xml:space="preserve"
       style="font-style:normal;font-weight:normal;font-size:2.13654px;line-height:1.25;font-family:sans-serif;fill:#000000;fill-opacity:1;stroke:none;stroke-width:0.0534142"
       x="27.599678"
       y="15.126696"
       id="text32356"
       inkscape:export-filename="/home/alex/Nextcloud/Research/Active control/figs/Bayesian_optimization.png"
       inkscape:export-xdpi="300"
       inkscape:export-ydpi="300"
       transform="scale(0.9918779,1.0081886)"><tspan
         sodipodi:role="line"
         id="tspan32354"
         style="stroke-width:0.0534142"
         x="27.599678"
         y="15.126696">Mean prediction</tspan></text>
    <text
       xml:space="preserve"
       style="font-style:normal;font-weight:normal;font-size:2.13654px;line-height:1.25;font-family:sans-serif;fill:#000000;fill-opacity:1;stroke:none;stroke-width:0.0534142"
       x="27.599678"
       y="17.952774"
       id="text37478"
       inkscape:export-filename="/home/alex/Nextcloud/Research/Active control/figs/Bayesian_optimization.png"
       inkscape:export-xdpi="300"
       inkscape:export-ydpi="300"
       transform="scale(0.9918779,1.0081886)"><tspan
         sodipodi:role="line"
         id="tspan37476"
         style="stroke-width:0.0534142"
         x="27.599678"
         y="17.952774">Data sample</tspan></text>
    <use
       x="0"
       y="0"
       xlink:href="#path1045-6"
       id="use17366"
       transform="rotate(-11.457897,169.51574,27.944958)"
       width="100%"
       height="100%"
       inkscape:export-filename="/home/alex/Nextcloud/Research/Active control/figs/Bayesian_optimization.png"
       inkscape:export-xdpi="300"
       inkscape:export-ydpi="300" />
    <use
       x="0"
       y="0"
       xlink:href="#path1045-6"
       id="use17366-5"
       transform="rotate(-9.697205,295.89004,39.347879)"
       width="100%"
       height="100%"
       inkscape:export-filename="/home/alex/Nextcloud/Research/Active control/figs/Bayesian_optimization.png"
       inkscape:export-xdpi="300"
       inkscape:export-ydpi="300" />
  </g>
</svg>
